PathFileType	4	(X/Y/Z)	HSS_squat2.trc
DataRate	CameraRate	NumFrames	NumMarkers	Units	OrigDataRate	OrigDataStartFrame	OrigNumFrames
120.0	120.0	6	44	mm	120.0	728	970
Frame#	Time		R.Shoulder		Offset		L.Shoulder		R.Elbow		R.Wrist.Radial		R.Wrist		R.Hand		L.Elbow		L.Wrist.Radial		L.Wrist		L.Hand		R.Hip		V.Sacral		L.PSIS		L.Hip		R.Thigh.Upper		R.Thigh.Front		R.Thigh.Rear		X.Shell.Lower.Thigh.Right		R.Knee.Lateral		R.Shank.Upper		R.Shank.Front		R.Shank.Rear		X.Shell.Lower.Shank.Right		R.Ankle.Lateral		R.Heel		R.Toe		L.Thigh.Upper		L.Thigh.Front		L.Thigh.Rear		X.Shell.Lower.Thigh.Left		L.Knee.Lateral		L.Shank.Upper		L.Shank.Front		L.Shank.Rear		X.Shell.Lower.Shank.Left		L.Ankle.Lateral		L.Heel		L.Toe		R.Troc		L.Troc		R.PSIS		L.ASIS		R.ASIS
			X1	Y1	Z1	X2	Y2	Z2	X3	Y3	Z3	X4	Y4	Z4	X5	Y5	Z5	X6	Y6	Z6	X7	Y7	Z7	X8	Y8	Z8	X9	Y9	Z9	X10	Y10	Z10	X11	Y11	Z11	X12	Y12	Z12	X13	Y13	Z13	X14	Y14	Z14	X15	Y15	Z15	X16	Y16	Z16	X17	Y17	Z17	X18	Y18	Z18	X19	Y19	Z19	X20	Y20	Z20	X21	Y21	Z21	X22	Y22	Z22	X23	Y23	Z23	X24	Y24	Z24	X25	Y25	Z25	X26	Y26	Z26	X27	Y27	Z27	X28	Y28	Z28	X29	Y29	Z29	X30	Y30	Z30	X31	Y31	Z31	X32	Y32	Z32	X33	Y33	Z33	X34	Y34	Z34	X35	Y35	Z35	X36	Y36	Z36	X37	Y37	Z37	X38	Y38	Z38	X39	Y39	Z39	X40	Y40	Z40	X41	Y41	Z41	X42	Y42	Z42	X43	Y43	Z43	X44	Y44	Z44

728	6.05833	109.30075	1220.47620	-167.99948	-181.40031	1160.36597	-42.55025	-204.88043	1227.83545	-191.16486	203.01584	1056.21814	-448.70505	55.72190	1108.92395	-665.28534	108.90469	1133.05322	-689.61725	37.57157	1146.39856	-739.63983	-279.51385	1078.62976	-484.25049	-155.20004	1141.93872	-703.82574	-100.77953	1105.59229	-671.39233	-76.18361	1140.20154	-745.69495	87.72803	806.48505	21.14519	-61.46276	835.53583	148.35796	-101.33849	844.12805	138.72995	-207.68791	808.34387	17.65154	182.02354	633.93970	-114.65621	176.07576	640.09570	-166.54111	201.06981	595.62512	-131.18686	193.02266	599.26477	-176.84145	195.00664	478.51868	-225.93512	247.15511	349.26901	-202.80846	226.30263	298.67380	-217.34927	231.93724	324.14087	-161.88362	225.20308	278.40186	-172.46388	187.47972	71.68843	-89.23640	136.62221	33.72903	-43.52926	202.56213	35.16342	-234.68188	-259.39609	629.87335	-139.77681	-243.44576	620.02747	-194.59634	-276.17224	586.01038	-152.74988	-268.91199	589.14752	-196.83609	-245.51382	463.45584	-250.32515	-288.66519	290.97037	-185.59254	-270.56625	259.11429	-202.70213	-277.18692	265.08798	-142.46570	-279.40619	227.99142	-153.99940	-240.50882	72.35596	-104.53350	-193.70978	35.92358	-42.69885	-243.52199	35.53091	-239.43803	128.30046	752.55756	37.24082	-250.95116	747.66119	38.52531	-18.13496	842.45978	140.79846	-165.05690	757.35364	-25.95219	55.91243	756.30951	-19.47811
729	6.06667	109.23761	1225.12927	-166.93761	-181.66284	1164.77087	-41.58399	-205.14438	1232.44946	-190.09204	203.01617	1059.88892	-447.52844	55.89837	1112.44849	-664.20337	108.85851	1136.09766	-688.52686	37.52999	1149.46130	-738.49329	-279.70676	1082.30627	-483.15610	-155.12053	1145.23828	-702.76819	-101.63698	1108.73193	-670.37500	-76.16339	1143.37573	-744.61475	87.37154	810.08997	20.54729	-61.80300	838.91644	147.54707	-101.69414	847.53113	137.78711	-208.08011	812.03540	16.94279	181.66727	635.20593	-115.50893	175.43520	641.08447	-167.44598	200.45012	596.80579	-131.59526	192.44905	600.12872	-177.19150	194.13951	479.09808	-225.54671	246.48232	349.57767	-202.22318	225.74959	299.10825	-217.02443	231.35542	324.40692	-161.57239	224.62141	278.68088	-171.90614	187.43547	71.72128	-89.18926	136.64272	33.70521	-43.52707	202.51366	35.17348	-234.69531	-259.40161	631.11926	-140.75786	-243.18301	620.88483	-195.50906	-275.92950	587.12207	-153.36330	-268.66602	589.90277	-197.56053	-245.07697	464.04132	-249.76970	-288.36746	291.25436	-185.28369	-270.27591	259.40424	-202.34201	-276.94034	265.32291	-142.12679	-279.18912	228.16396	-153.69832	-240.53456	72.37593	-104.50922	-193.79729	35.89962	-42.65044	-243.47386	35.55221	-239.42181	128.04248	755.27948	36.01514	-251.05907	750.56177	37.49916	-18.44378	845.84082	140.12741	-165.36765	761.05945	-26.83927	55.60140	760.09192	-20.91133
730	6.07500	109.11345	1229.65930	-165.97000	-181.77759	1169.09717	-40.68812	-205.37659	1237.09070	-189.22137	202.90160	1063.68164	-446.20438	56.06368	1115.89331	-663.05548	108.81955	1139.10559	-687.37488	37.47934	1152.38965	-737.40009	-279.85193	1086.01086	-482.06879	-155.20686	1148.46338	-701.54590	-101.36714	1112.07776	-669.10718	-76.10632	1146.47961	-743.34888	86.96895	813.71796	19.86758	-62.12104	842.29083	146.81784	-102.08575	850.95679	137.14124	-208.37752	815.66162	16.09031	181.26649	636.79828	-116.33282	175.00514	641.95557	-168.31808	199.82303	597.94238	-132.15599	191.78204	600.89624	-177.93599	193.26897	479.55554	-225.00197	245.78043	349.96930	-201.85609	225.19417	299.45639	-216.47333	230.75006	324.61917	-160.89677	224.07033	278.86838	-171.56636	187.40198	71.76258	-89.18626	136.67490	33.68615	-43.51556	202.48080	35.20208	-234.69202	-259.32880	632.49170	-141.66342	-243.04938	621.71539	-196.30313	-275.77850	588.25745	-154.00102	-268.36667	590.68134	-198.19437	-244.38757	464.42081	-249.31129	-287.96204	291.52783	-184.87563	-269.98892	259.72232	-201.95236	-276.70706	265.51709	-141.84143	-278.92429	228.38431	-153.43239	-240.54832	72.39959	-104.45735	-193.89006	35.87928	-42.59725	-243.40727	35.58912	-239.37491	127.89460	757.66675	35.00294	-251.41119	753.26648	36.30140	-18.88885	849.16296	139.34608	-165.74203	764.65625	-27.78206	55.20789	763.47516	-21.04840
731	6.08333	109.09383	1234.08228	-164.79189	-182.05492	1173.43518	-39.67091	-205.68410	1241.70850	-188.22014	202.34927	1067.35876	-444.35297	56.21789	1119.25903	-661.84338	108.77724	1141.98523	-686.23413	37.52449	1155.20911	-736.25116	-280.05560	1089.65710	-480.75003	-155.23204	1151.62085	-700.52295	-101.44182	1115.44666	-667.80444	-76.07431	1149.46350	-742.11035	86.66932	817.36017	19.07923	-62.70758	845.58453	145.98907	-102.63852	854.32007	136.42325	-208.65656	819.24384	15.28914	180.63197	637.97504	-117.02496	174.31793	642.83435	-169.26883	199.16386	599.09882	-132.50716	191.17879	601.71387	-178.38666	192.44443	480.09970	-224.68735	245.26373	350.40878	-201.36963	224.63855	299.82169	-216.01553	230.22588	324.83084	-160.56514	223.74992	279.09494	-171.27177	187.34676	71.81018	-89.13671	136.69365	33.67592	-43.49049	202.44041	35.19727	-234.68436	-259.17026	633.74689	-142.65912	-242.78793	622.52570	-197.23769	-276.01117	589.35901	-154.72417	-268.16934	591.42065	-198.85973	-243.89735	464.92142	-249.04884	-287.56058	291.77591	-184.47574	-269.70718	260.02731	-201.67711	-276.47046	265.72351	-141.46477	-278.73004	228.58154	-153.19510	-240.56386	72.43770	-104.39732	-193.99870	35.87843	-42.55715	-243.32767	35.63214	-239.33591	127.83653	760.27728	33.70835	-251.61829	755.93512	35.05615	-19.27502	852.61316	138.84282	-165.96098	768.30499	-28.71316	54.79782	767.24017	-21.97199
732	6.09167	109.07615	1238.60181	-163.69276	-182.25992	1177.70959	-38.75684	-205.98233	1246.28430	-187.12932	202.36446	1071.00806	-442.98965	56.36106	1122.54602	-660.56866	108.68730	1144.83667	-684.90845	37.50615	1157.98730	-734.95166	-280.25342	1093.37622	-479.65833	-155.35748	1154.64490	-699.40314	-101.28272	1118.78027	-666.20038	-76.06506	1152.34778	-740.89343	86.29118	821.03149	18.42497	-63.07376	848.93225	145.18030	-103.12827	857.54376	135.59689	-208.92055	822.77155	14.29798	179.88876	639.20593	-117.88451	174.10846	643.75592	-170.01825	198.55383	600.29767	-133.14891	190.56494	602.45319	-178.88069	191.55591	480.66281	-224.41675	244.50452	350.82452	-200.98340	224.13260	300.08508	-215.64177	229.66360	325.12408	-160.24782	223.21317	279.40515	-170.78697	187.29024	71.84377	-89.13449	136.73347	33.66364	-43.46893	202.42609	35.19233	-234.67743	-259.09573	635.05780	-143.67732	-242.49184	623.33710	-198.13258	-275.72421	590.41791	-155.58246	-267.86780	592.12585	-199.53526	-243.20122	465.45105	-248.64642	-287.25845	292.00793	-184.24896	-269.44305	260.23407	-201.43680	-276.26544	265.90204	-141.23952	-278.47882	228.78654	-152.93372	-240.57864	72.46722	-104.34539	-194.13524	35.83691	-42.51207	-243.26039	35.65322	-239.31648	127.72471	762.88885	32.41442	-251.86522	758.47784	33.78753	-19.61399	855.91321	138.19400	-166.27110	771.93170	-29.61619	54.43074	770.86810	-22.60615
733	6.10000	109.01435	1243.00879	-162.57350	-182.46713	1181.86719	-37.77643	-206.26163	1250.90320	-186.09988	202.37596	1074.54736	-441.49796	56.49324	1125.75500	-659.23285	108.68601	1147.67761	-683.69824	37.45070	1160.78333	-733.86957	-280.53656	1096.97314	-478.29404	-155.35480	1157.61414	-698.28058	-101.33302	1121.65759	-664.97424	-76.10346	1155.16846	-739.71637	85.85403	824.68787	17.58196	-63.38786	852.08179	144.35994	-103.43236	860.76611	134.74574	-209.31122	826.35468	13.47473	179.51329	640.56885	-118.76136	173.24174	644.62036	-171.07176	197.91731	601.32971	-133.77292	189.84006	603.21002	-179.56189	190.59009	481.20203	-223.88361	243.91711	351.12964	-200.51450	223.54063	300.48178	-215.28362	229.09863	325.45358	-159.66022	222.71136	279.79001	-170.48253	187.25710	71.89648	-89.17612	136.75987	33.64468	-43.45680	202.39404	35.15506	-234.74103	-258.96664	636.25751	-144.86377	-242.18550	624.17096	-199.11264	-275.42728	591.46100	-156.08423	-267.94769	593.08838	-200.75357	-242.74232	465.86975	-248.24384	-286.99301	292.19989	-183.98653	-268.96057	260.37497	-201.22795	-277.27911	265.67181	-140.97835	-278.29916	229.00961	-152.65974	-240.58357	72.48929	-104.32516	-194.19283	35.83124	-42.44229	-243.18187	35.65014	-239.30409	127.44196	765.36011	31.11314	-252.12808	761.08917	32.53112	-20.02406	859.08246	137.28795	-166.61794	775.59985	-30.71622	53.44414	775.09418	-23.76537
